<?xml version="1.0" encoding="UTF-8" standalone="no"?>
<svg width="187px" height="26px" viewBox="0 0 187 26" version="1.1" xmlns="http://www.w3.org/2000/svg" xmlns:xlink="http://www.w3.org/1999/xlink" xmlns:sketch="http://www.bohemiancoding.com/sketch/ns">
    <!-- Generator: Sketch 3.0.4 (8054) - http://www.bohemiancoding.com/sketch -->
    <title>MOCCO - ART</title>
    <desc>Created with Sketch.</desc>
    <defs></defs>
    <g id="Page-1" stroke="none" stroke-width="1" fill="none" fill-rule="evenodd" sketch:type="MSPage">
        <path d="M168.691583,4.15873278 C168.294723,3.53880679 167.660863,3.04923097 166.79,2.69 C165.189992,2.0299967 163.250011,1.7 160.97,1.7 C158.669989,1.7 156.430011,1.9699973 154.25,2.51 C152.069989,3.0100025 150.630004,3.7699949 149.93,4.79 C149.249997,5.7700049 148.91,6.5199974 148.91,7.04 C148.91,7.2200009 148.979999,7.3799993 149.12,7.52 C149.260001,7.6600007 149.429999,7.73 149.63,7.73 C149.65,7.73 150.399993,7.7000003 151.88,7.64 C152.620004,7.5999998 153.189998,7.57500005 153.59,7.565 C153.990002,7.55499995 154.23,7.5400001 154.31,7.52 C154.450001,7.4999999 154.52,7.4600003 154.52,7.4 C154.52,7.2199991 154.000005,7.13 152.96,7.13 C152.559998,7.13 152.36,7.05500075 152.36,6.905 C152.36,6.75499925 152.749996,6.5900009 153.53,6.41 C153.930002,6.3099995 154.529996,6.19500065 155.33,6.065 C156.130004,5.93499935 157.129994,5.770001 158.33,5.57 C157.289995,6.9300068 156.390004,8.12499485 155.63,9.155 C154.869996,10.1850051 154.230003,11.0599964 153.71,11.78 C153.109997,11.8600004 152.615002,11.9299997 152.225,11.99 C151.834998,12.0500003 151.560001,12.1099997 151.4,12.17 C151.099999,12.2500004 150.750002,12.5799971 150.35,13.16 C149.969998,13.7200028 149.78,14.1699983 149.78,14.51 C149.78,14.6500007 149.859999,14.7699995 150.02,14.87 C150.180001,14.9700005 150.509998,15.1099991 151.01,15.29 C150.489997,15.9700034 150.025002,16.614997 149.615,17.225 C149.204998,17.835003 148.860001,18.3849976 148.58,18.875 C148.299999,19.3650024 148.080001,19.7699984 147.92,20.09 C147.759999,20.4100016 147.68,20.6299994 147.68,20.75 C147.68,21.1300019 147.869998,21.32 148.25,21.32 C148.390001,21.32 148.554999,21.2850004 148.745,21.215 C148.935001,21.1449997 149.119999,21.0350007 149.3,20.885 C149.480001,20.7349993 149.644999,20.560001 149.795,20.36 C149.945001,20.159999 150.05,19.9200014 150.11,19.64 C150.250001,19.0799972 151.029993,17.8500095 152.45,15.95 L157.97,18.65 C159.330007,19.3100033 160.439996,19.8649978 161.3,20.315 C162.160004,20.7650023 162.779998,21.0999989 163.16,21.32 C163.920004,21.7800023 164.419999,22.01 164.66,22.01 C164.920001,22.01 165.085,21.8200019 165.155,21.44 C165.225,21.0599981 165.26,20.5800029 165.26,20 C165.26,19.3599968 165.22,18.9200012 165.14,18.68 C165.08,18.3999986 164.740003,18.0700019 164.12,17.69 C163.519997,17.3099981 162.370009,16.7450037 160.67,15.995 C158.969992,15.2449962 156.660015,14.3300054 153.74,13.25 C155.180007,13.1699996 156.549994,13.0550008 157.85,12.905 C159.150007,12.7549992 160.409994,12.5600012 161.63,12.32 C164.090012,11.7999974 165.739996,11.240003 166.58,10.64 C167.440004,10.0199969 168.089998,9.3000041 168.53,8.48 C168.642363,8.27059707 168.740378,8.06054281 168.824046,7.84983683 C169.275103,7.88994575 170.067084,7.91 171.2,7.91 C172.040004,7.91 172.46,7.8600005 172.46,7.76 C172.46,7.5199988 171.790007,7.3300007 170.45,7.19 C170.149999,7.1699999 170,7.1100005 170,7.01 C170,6.8299991 170.679993,6.5100023 172.04,6.05 C172.740004,5.8299989 173.459996,5.63500085 174.2,5.465 C174.940004,5.29499915 175.729996,5.1400007 176.57,5 C178.210008,4.7199986 179.634994,4.58 180.845,4.58 C182.055006,4.58 183.039996,4.6499993 183.8,4.79 C180.759985,8.6100191 178.450008,11.8799864 176.87,14.6 C175.289992,17.2800134 174.5,19.1799944 174.5,20.3 C174.5,20.6600018 174.594999,20.9499989 174.785,21.17 C174.975001,21.3900011 175.209999,21.5 175.49,21.5 C175.930002,21.5 176.399998,21.1900031 176.9,20.57 C177.400003,19.9499969 178.009996,18.9100073 178.73,17.45 L178.25,17.09 C178.490001,16.5499973 178.849998,15.8300045 179.33,14.93 C179.810002,14.0299955 180.419996,12.9400064 181.16,11.66 C182.620007,9.1199873 183.729996,7.3800047 184.49,6.44 C185.230004,5.5199954 185.6,4.8300023 185.6,4.37 C185.6,4.2299993 185.550001,3.9900017 185.45,3.65 L185,2.3 C184.9,2.0399987 184.82,1.8300008 184.76,1.67 C184.7,1.5099992 184.635,1.3800005 184.565,1.28 C184.495,1.1799995 184.410001,1.09500035 184.31,1.025 C184.21,0.95499965 184.080001,0.8900003 183.92,0.83 C183.759999,0.7499996 183.565001,0.68500025 183.335,0.635 C183.104999,0.58499975 182.840002,0.5400002 182.54,0.5 C181.939997,0.3999995 181.020006,0.35 179.78,0.35 C178.539994,0.35 176.90001,0.5099984 174.86,0.83 C172.81999,1.1700017 171.350005,1.5999974 170.45,2.12 C169.625168,2.57629029 169.039033,3.25586241 168.691583,4.15873278 Z M27.32,15.32 L27.32,16.34 C23.9799833,19.4800157 21.6500066,21.05 20.33,21.05 C19.6099964,21.05 19.0200023,20.7850026 18.56,20.255 C18.0999977,19.7249973 17.87,19.0300043 17.87,18.17 C17.87,16.8299933 18.274996,15.4150075 19.085,13.925 C19.8950041,12.4349926 21.1699913,10.7500094 22.91,8.87 C23.7300041,7.9499954 24.14,7.390001 24.14,7.19 C24.14,7.0899995 24.040001,7.04 23.84,7.04 C23.6599991,7.04 22.9300064,7.5999944 21.65,8.72 C21.0299969,9.2800028 20.4000032,9.88499675 19.76,10.535 C19.1199968,11.1850032 18.4600034,11.8899962 17.78,12.65 C16.4399933,14.1500075 14.3800139,16.6299827 11.6,20.09 C11.4199991,20.290001 11.2200011,20.39 11,20.39 C10.8999995,20.39 10.7950005,20.3200007 10.685,20.18 C10.5749995,20.0399993 10.4750005,19.8650011 10.385,19.655 C10.2949995,19.4449989 10.2200003,19.2050014 10.16,18.935 C10.0999997,18.6649987 10.07,18.3900014 10.07,18.11 C10.07,17.5299971 10.169999,17.040002 10.37,16.64 C10.4700005,16.4199989 10.7099981,16.0350028 11.09,15.485 C11.4700019,14.9349973 11.9999966,14.2100045 12.68,13.31 C13.3600034,12.4099955 13.9699973,11.5550041 14.51,10.745 C15.0500027,9.93499595 15.5299979,9.1500038 15.95,8.39 C16.8100043,6.9099926 17.24,5.9000027 17.24,5.36 C17.24,5.0999987 17.1500009,4.97 16.97,4.97 C16.6099982,4.97 15.9100052,5.4899948 14.87,6.53 C13.8099947,7.5500051 12.5200076,9.0499901 11,11.03 C10.2399962,12.030005 9.47500385,13.0799945 8.705,14.18 C7.93499615,15.2800055 7.1600039,16.4399939 6.38,17.66 C5.8399973,18.6000047 5.4500012,19.1999987 5.21,19.46 C4.9899989,19.7400014 4.7400014,19.88 4.46,19.88 C4.1999987,19.88 3.9000017,19.5300035 3.56,18.83 C3.2399984,18.1699967 3.08,17.5700027 3.08,17.03 C3.08,16.8899993 3.1399994,16.7300009 3.26,16.55 C8.0800241,10.1699681 10.49,6.1300085 10.49,4.43 C10.49,4.0099979 10.290002,3.8 9.89,3.8 C9.3699974,3.8 7.9300118,4.5299927 5.57,5.99 C3.2499884,7.4500073 1.7800031,8.18 1.16,8.18 C0.8399984,8.18 0.68,8.0300015 0.68,7.73 C0.68,7.4299985 0.7499993,6.9300035 0.89,6.23 C1.0100006,5.5499966 1.1499992,5.0400017 1.31,4.7 C1.4500007,4.3999985 1.7499977,4.0400021 2.21,3.62 C2.6900024,3.1999979 3.15499775,2.84500145 3.605,2.555 C4.05500225,2.26499855 4.3099997,2.12 4.37,2.12 C4.4300003,2.12 4.46,2.1499997 4.46,2.21 C4.46,2.2700003 4.4000006,2.3399996 4.28,2.42 C3.5399963,2.9800028 3.1200005,3.4699979 3.02,3.89 C3.9600047,3.3299972 4.84499585,2.8400021 5.675,2.42 C6.50500415,1.9999979 7.25499665,1.65500135 7.925,1.385 C8.59500335,1.11499865 9.16499765,0.91500065 9.635,0.785 C10.1050024,0.65499935 10.4499989,0.59 10.67,0.59 C11.0900021,0.59 11.4799982,0.9399965 11.84,1.64 C12.2200019,2.3200034 12.41,2.8899977 12.41,3.35 C12.41,4.3100048 11.4000101,6.8099798 9.38,10.85 C12.3200147,7.049981 14.5999919,4.5300062 16.22,3.29 C17.8600082,2.0499938 18.8999978,1.43 19.34,1.43 C19.6600016,1.43 19.9599986,1.6199981 20.24,2 C20.5200014,2.3800019 20.66,2.7899978 20.66,3.23 C20.66,4.030004 18.9900167,7.1999723 15.65,12.74 C17.3300084,10.8799907 18.8599931,9.2600069 20.24,7.88 C20.9400035,7.1799965 21.6549964,6.49500335 22.385,5.825 C23.1150037,5.15499665 23.8699961,4.5000032 24.65,3.86 C26.2300079,2.5199933 27.0899993,1.8400001 27.23,1.82 C27.4100009,1.7599997 27.5599994,1.73 27.68,1.73 C27.9000011,1.73 28.209998,2.0199971 28.61,2.6 C29.010002,3.1800029 29.21,3.569999 29.21,3.77 C29.21,3.970001 29.1000011,4.2099986 28.88,4.49 C28.7799995,4.6300007 28.6100012,4.82499875 28.37,5.075 C28.1299988,5.32500125 27.8200019,5.649998 27.44,6.05 C26.4799952,7.0900052 25.6100039,8.12499485 24.83,9.155 C24.0499961,10.1850051 23.3700029,11.2399946 22.79,12.32 C21.6099941,14.4600107 21.02,16.0799945 21.02,17.18 C21.02,17.6400023 21.1049991,17.9599991 21.275,18.14 C21.4450008,18.3200009 21.7199981,18.41 22.1,18.41 C22.4600018,18.41 22.9899965,18.210002 23.69,17.81 C24.4100036,17.409998 25.6199915,16.5800063 27.32,15.32 Z M38.3,4.97 C39.0200036,4.7099987 39.6899969,4.5600002 40.31,4.52 C40.9300031,4.4799998 41.4649978,4.55499905 41.915,4.745 C42.3650023,4.93500095 42.7199987,5.2499978 42.98,5.69 C43.2400013,6.1300022 43.3799999,6.7099964 43.4,7.43 C43.4,8.7900068 42.9100049,10.5499892 41.93,12.71 C40.929995,14.910011 39.5600087,16.7299928 37.82,18.17 C36.0599912,19.6500074 34.280009,20.39 32.48,20.39 C31.1999936,20.39 30.160004,19.8700052 29.36,18.83 C28.559996,17.7899948 28.16,16.3300094 28.16,14.45 C28.16,12.5899907 28.8399932,10.6200104 30.2,8.54 C31.5800069,6.4199894 33.26999,4.6500071 35.27,3.23 C37.27001,1.7899928 38.8899938,1.07 40.13,1.07 C40.8100034,1.07 41.3399981,1.2799979 41.72,1.7 C42.1000019,2.1200021 42.4499984,2.8099952 42.77,3.77 C41.1499919,3.7900001 39.6600068,4.1899961 38.3,4.97 Z M34.61,7.94 C34.009997,8.6200034 33.4500026,9.3499961 32.93,10.13 C32.4099974,10.9100039 31.9300022,11.7599954 31.49,12.68 C30.6299957,14.4600089 30.2,15.8099954 30.2,16.73 C30.2,18.1900073 30.8799932,18.92 32.24,18.92 C33.2600051,18.92 34.5199925,18.2600066 36.02,16.94 C37.5600077,15.6199934 38.8499948,14.0500091 39.89,12.23 C40.9500053,10.3899908 41.48,8.8000067 41.48,7.46 C41.48,6.3799946 41.0500043,5.84 40.19,5.84 C39.1699949,5.84 37.9900067,6.339995 36.65,7.34 C35.3299934,8.340005 34.1600051,9.7099913 33.14,11.45 C33.3200009,10.4899952 33.809996,9.3200069 34.61,7.94 Z M63.08,15.32 L63.08,16.28 C61.7599934,17.7600074 60.5250057,19.0199948 59.375,20.06 C58.2249943,21.1000052 57.1550049,21.9499967 56.165,22.61 C55.1749951,23.2700033 54.2400044,23.7549985 53.36,24.065 C52.4799956,24.3750016 51.6500039,24.53 50.87,24.53 C49.2899921,24.53 48.0400046,24.0850044 47.12,23.195 C46.1999954,22.3049956 45.74,20.9800088 45.74,19.22 C45.74,17.4599912 46.239995,15.5950098 47.24,13.625 C48.240005,11.6549902 49.8199892,9.4900118 51.98,7.13 C54.1400108,4.7699882 56.0899913,3.0600053 57.83,2 C59.5700087,0.9399947 61.039994,0.41 62.24,0.41 C62.9400035,0.41 63.4949979,0.67499735 63.905,1.205 C64.315002,1.73500265 64.52,2.4199958 64.52,3.26 C64.52,4.5800066 64.020005,6.0699917 63.02,7.73 C62.5199975,8.5700042 61.9250034,9.3999959 61.235,10.22 C60.5449966,11.0400041 59.7500045,11.8699958 58.85,12.71 C57.0699911,14.3900084 55.8300035,15.23 55.13,15.23 C54.8699987,15.23 54.6050014,15.1250011 54.335,14.915 C54.0649987,14.704999 53.93,14.4200018 53.93,14.06 C53.93,13.1999957 54.5399939,12.1300064 55.76,10.85 C56.9800061,9.5299934 57.7299986,8.87 58.01,8.87 C58.210001,8.87 58.1900012,9.0599981 57.95,9.44 C57.8499995,9.640001 57.8,9.7699997 57.8,9.83 C57.8,9.8900003 57.8299997,9.92 57.89,9.92 C58.0700009,9.92 58.559996,9.4600046 59.36,8.54 C60.1800041,7.6399955 60.9099968,6.6500054 61.55,5.57 C62.1700031,4.4899946 62.48,3.650003 62.48,3.05 C62.48,2.449997 62.2400024,2.15 61.76,2.15 C60.8999957,2.15 59.4000107,3.0999905 57.26,5 C55.1799896,6.8600093 53.3200082,9.089987 51.68,11.69 C50.0599919,14.2500128 49.25,16.4099912 49.25,18.17 C49.25,19.370006 49.5199973,20.2849968 50.06,20.915 C50.6000027,21.5450031 51.3799949,21.86 52.4,21.86 C55.1600138,21.86 58.7199782,19.6800218 63.08,15.32 Z M81.2,15.32 L81.2,16.28 C79.8799934,17.7600074 78.6450057,19.0199948 77.495,20.06 C76.3449943,21.1000052 75.2750049,21.9499967 74.285,22.61 C73.2949951,23.2700033 72.3600044,23.7549985 71.48,24.065 C70.5999956,24.3750016 69.7700039,24.53 68.99,24.53 C67.4099921,24.53 66.1600046,24.0850044 65.24,23.195 C64.3199954,22.3049956 63.86,20.9800088 63.86,19.22 C63.86,17.4599912 64.359995,15.5950098 65.36,13.625 C66.360005,11.6549902 67.9399892,9.4900118 70.1,7.13 C72.2600108,4.7699882 74.2099913,3.0600053 75.95,2 C77.6900087,0.9399947 79.159994,0.41 80.36,0.41 C81.0600035,0.41 81.6149979,0.67499735 82.025,1.205 C82.435002,1.73500265 82.64,2.4199958 82.64,3.26 C82.64,4.5800066 82.140005,6.0699917 81.14,7.73 C80.6399975,8.5700042 80.0450034,9.3999959 79.355,10.22 C78.6649965,11.0400041 77.8700045,11.8699958 76.97,12.71 C75.1899911,14.3900084 73.9500035,15.23 73.25,15.23 C72.9899987,15.23 72.7250014,15.1250011 72.455,14.915 C72.1849987,14.704999 72.05,14.4200018 72.05,14.06 C72.05,13.1999957 72.6599939,12.1300064 73.88,10.85 C75.1000061,9.5299934 75.8499986,8.87 76.13,8.87 C76.330001,8.87 76.3100012,9.0599981 76.07,9.44 C75.9699995,9.640001 75.92,9.7699997 75.92,9.83 C75.92,9.8900003 75.9499997,9.92 76.01,9.92 C76.1900009,9.92 76.679996,9.4600046 77.48,8.54 C78.3000041,7.6399955 79.0299968,6.6500054 79.67,5.57 C80.2900031,4.4899946 80.6,3.650003 80.6,3.05 C80.6,2.449997 80.3600024,2.15 79.88,2.15 C79.0199957,2.15 77.5200107,3.0999905 75.38,5 C73.2999896,6.8600093 71.4400082,9.089987 69.8,11.69 C68.1799919,14.2500128 67.37,16.4099912 67.37,18.17 C67.37,19.370006 67.6399973,20.2849968 68.18,20.915 C68.7200027,21.5450031 69.4999949,21.86 70.52,21.86 C73.2800138,21.86 76.8399782,19.6800218 81.2,15.32 Z M91.73,4.97 C92.4500036,4.7099987 93.1199969,4.5600002 93.74,4.52 C94.3600031,4.4799998 94.8949978,4.55499905 95.345,4.745 C95.7950022,4.93500095 96.1499987,5.2499978 96.41,5.69 C96.6700013,6.1300022 96.8099999,6.7099964 96.83,7.43 C96.83,8.7900068 96.3400049,10.5499892 95.36,12.71 C94.359995,14.910011 92.9900087,16.7299928 91.25,18.17 C89.4899912,19.6500074 87.710009,20.39 85.91,20.39 C84.6299936,20.39 83.590004,19.8700052 82.79,18.83 C81.989996,17.7899948 81.59,16.3300094 81.59,14.45 C81.59,12.5899907 82.2699932,10.6200104 83.63,8.54 C85.0100069,6.4199894 86.69999,4.6500071 88.7,3.23 C90.70001,1.7899928 92.3199938,1.07 93.56,1.07 C94.2400034,1.07 94.7699981,1.2799979 95.15,1.7 C95.5300019,2.1200021 95.8799984,2.8099952 96.2,3.77 C94.5799919,3.7900001 93.0900068,4.1899961 91.73,4.97 Z M88.04,7.94 C87.439997,8.6200034 86.8800026,9.3499961 86.36,10.13 C85.8399974,10.9100039 85.3600022,11.7599954 84.92,12.68 C84.0599957,14.4600089 83.63,15.8099954 83.63,16.73 C83.63,18.1900073 84.3099932,18.92 85.67,18.92 C86.6900051,18.92 87.9499925,18.2600066 89.45,16.94 C90.9900077,15.6199934 92.2799948,14.0500091 93.32,12.23 C94.3800053,10.3899908 94.91,8.8000067 94.91,7.46 C94.91,6.3799946 94.4800043,5.84 93.62,5.84 C92.5999949,5.84 91.4200067,6.339995 90.08,7.34 C88.7599934,8.340005 87.5900051,9.7099913 86.57,11.45 C86.7500009,10.4899952 87.239996,9.3200069 88.04,7.94 Z M115.19,11.39 C115.490002,11.3099996 115.689999,11.27 115.79,11.27 L116.51,11.39 C117.050003,11.4500003 117.32,11.5399994 117.32,11.66 C117.32,11.7600005 117.060003,12.0199979 116.54,12.44 C116.039998,12.840002 115.550002,13.1199992 115.07,13.28 C114.829999,13.3600004 114.535002,13.4249997 114.185,13.475 C113.834998,13.5250003 113.430002,13.5699998 112.97,13.61 C112.029995,13.6700003 111.210003,13.7 110.51,13.7 C109.789996,13.7 109.305001,13.6800002 109.055,13.64 C108.804999,13.5999998 108.68,13.5100007 108.68,13.37 C108.68,13.1099987 108.979997,12.6900029 109.58,12.11 C110.220003,11.5299971 111.369992,11.24 113.03,11.24 C113.290001,11.24 113.599998,11.2549999 113.96,11.285 C114.320002,11.3150002 114.729998,11.3499998 115.19,11.39 Z M140.6,13.97 C139.899997,13.9900001 139.280003,14 138.74,14 L137.42,14 L136.19,14 C135.709998,14 135.160003,13.9900001 134.54,13.97 C132.119988,16.4300123 130.310006,18.2399942 129.11,19.4 C127.909994,20.5400057 127.190001,21.1699994 126.95,21.29 C126.729999,21.4300007 126.500001,21.5 126.26,21.5 C125.899998,21.5 125.72,21.3400016 125.72,21.02 C125.72,20.4999974 126.219995,19.6500059 127.22,18.47 C128.200005,17.3099942 128.999997,16.73 129.62,16.73 C129.66,16.73 129.809999,16.7799995 130.07,16.88 L132.86,13.91 C132.139996,13.8699998 131.570002,13.8300002 131.15,13.79 C130.729998,13.7499998 130.470001,13.7100002 130.37,13.67 C130.149999,13.5699995 130.04,13.3900013 130.04,13.13 C130.04,12.8499986 130.309997,12.3900032 130.85,11.75 C131.430003,11.0899967 131.949998,10.6400012 132.41,10.4 C132.890002,10.1599988 133.829993,10.04 135.23,10.04 C133.889993,10.2200009 133.22,10.5299978 133.22,10.97 L134.24,10.97 C134.640002,10.9900001 134.969999,10.9950001 135.23,10.985 C135.490001,10.9749999 135.679999,10.9600001 135.8,10.94 C137.180007,9.5999933 138.449994,8.4100052 139.61,7.37 C140.770006,6.3299948 141.839995,5.4300038 142.82,4.67 C144.76001,3.1499924 146.799989,1.8300056 148.94,0.71 C149.260002,1.110002 149.42,1.5399977 149.42,2 C149.42,2.4600023 149.330001,2.8399985 149.15,3.14 L145.01,10.52 C145.810004,10.52 146.394998,10.5299999 146.765,10.55 C147.135002,10.5700001 147.34,10.5999998 147.38,10.64 C147.44,10.6800002 147.47,10.7699993 147.47,10.91 C147.47,11.0100005 146.760007,11.9399912 145.34,13.7 L143.18,13.88 C142.039994,16.0200107 141.47,17.2599983 141.47,17.6 C141.47,17.9400017 141.679998,18.11 142.1,18.11 C142.340001,18.11 143.189993,17.6800043 144.65,16.82 L144.53,17.6 L142.37,19.25 C141.649996,19.7700026 141.120002,20.1199991 140.78,20.3 C140.419998,20.4800009 140.070002,20.57 139.73,20.57 C139.389998,20.57 139.080001,20.4100016 138.8,20.09 C138.519999,19.7499983 138.38,19.3900019 138.38,19.01 C138.38,18.6299981 138.519999,18.1100033 138.8,17.45 C139.080001,16.7699966 139.679995,15.6100082 140.6,13.97 Z M137.84,10.64 L142.58,10.55 C143.340004,9.2299934 144.099996,7.9400063 144.86,6.68 C145.620004,5.4199937 146.379996,4.1800061 147.14,2.96 C145.699993,3.8600045 144.215008,4.94499365 142.685,6.215 C141.154992,7.48500635 139.540008,8.9599916 137.84,10.64 Z M159.26,5.42 C159.28,5.5000004 159.295,5.5699997 159.305,5.63 C159.315,5.6900003 159.32,5.7499997 159.32,5.81 C159.32,6.3300026 158.985003,7.0699952 158.315,8.03 C157.644997,8.9900048 156.770005,10.1299934 155.69,11.45 C160.330023,10.5899957 163.439992,9.7900037 165.02,9.05 C166.600008,8.3099963 167.39,7.5900035 167.39,6.89 C167.39,6.3499973 166.890005,5.9400014 165.89,5.66 C164.869995,5.3799986 163.750006,5.24 162.53,5.24 C161.309994,5.24 160.220005,5.2999994 159.26,5.42 Z M168.691583,4.15873278 C169.023862,4.67777653 169.19,5.28819789 169.19,5.99 C169.19,6.61549388 169.068016,7.23543606 168.824046,7.84983683 C168.638079,7.83330022 168.510064,7.81335462 168.44,7.79 C168.199999,7.7099996 168.08,7.4200025 168.08,6.92 C168.08,6.3799973 168.239998,5.5900052 168.56,4.55 C168.599208,4.41522395 168.643069,4.28480156 168.691583,4.15873278 Z" id="MOCCO---ART" fill="#22919C" sketch:type="MSShapeGroup"></path>
    </g>
</svg>