<?xml version="1.0" encoding="UTF-8" standalone="no"?>
<svg width="45px" height="45px" viewBox="0 0 45 45" version="1.1" xmlns="http://www.w3.org/2000/svg" xmlns:xlink="http://www.w3.org/1999/xlink" xmlns:sketch="http://www.bohemiancoding.com/sketch/ns">
    <!-- Generator: Sketch 3.0.4 (8054) - http://www.bohemiancoding.com/sketch -->
    <title>close33</title>
    <desc>Created with Sketch.</desc>
    <defs>
        <filter x="-50%" y="-50%" width="200%" height="200%" filterUnits="objectBoundingBox" id="filter-1">
            <feOffset dx="0" dy="2" in="SourceAlpha" result="shadowOffsetOuter1"></feOffset>
            <feGaussianBlur stdDeviation="2" in="shadowOffsetOuter1" result="shadowBlurOuter1"></feGaussianBlur>
            <feColorMatrix values="0 0 0 0 0   0 0 0 0 0   0 0 0 0 0  0 0 0 0.35 0" in="shadowBlurOuter1" type="matrix" result="shadowMatrixOuter1"></feColorMatrix>
            <feOffset dx="0" dy="2" in="SourceAlpha" result="shadowOffsetOuter2"></feOffset>
            <feGaussianBlur stdDeviation="2" in="shadowOffsetOuter2" result="shadowBlurOuter2"></feGaussianBlur>
            <feColorMatrix values="0 0 0 0 0   0 0 0 0 0   0 0 0 0 0  0 0 0 0.35 0" in="shadowBlurOuter2" type="matrix" result="shadowMatrixOuter2"></feColorMatrix>
            <feMerge>
                <feMergeNode in="shadowMatrixOuter1"></feMergeNode>
                <feMergeNode in="shadowMatrixOuter2"></feMergeNode>
                <feMergeNode in="SourceGraphic"></feMergeNode>
            </feMerge>
        </filter>
    </defs>
    <g id="Page-1" stroke="none" stroke-width="1" fill="none" fill-rule="evenodd" sketch:type="MSPage">
        <g id="close33" sketch:type="MSLayerGroup">
            <g id="Group" sketch:type="MSShapeGroup">
                <g transform="translate(15.000000, 15.000000)" id="Shape">
                    <path d="M0.533,13.704 L13.704,0.533" stroke="#FFFFFF" fill="#000000" filter="url(#filter-1)"></path>
                    <path d="M0.533,14.454 C0.341,14.454 0.149,14.381 0.003,14.234 C-0.29,13.941 -0.29,13.466 0.003,13.173 L13.174,0.002 C13.467,-0.291 13.942,-0.291 14.235,0.002 C14.528,0.295 14.528,0.77 14.235,1.063 L1.063,14.234 C0.917,14.381 0.725,14.454 0.533,14.454 L0.533,14.454 Z" fill="#FFFFFF"></path>
                </g>
                <g transform="translate(15.000000, 15.000000)" id="Shape">
                    <path d="M0.533,0.533 L13.704,13.704" fill="#000000"></path>
                    <path d="M13.704,14.454 C13.512,14.454 13.32,14.381 13.174,14.234 L0.002,1.063 C-0.291,0.77 -0.291,0.295 0.002,0.002 C0.295,-0.291 0.77,-0.291 1.063,0.002 L14.234,13.173 C14.527,13.466 14.527,13.941 14.234,14.234 C14.088,14.381 13.896,14.454 13.704,14.454 L13.704,14.454 Z" fill="#FFFFFF"></path>
                </g>
                <path d="M22.119,44.237 C9.922,44.237 0,34.315 0,22.119 C0,9.923 9.922,0 22.119,0 C34.316,0 44.238,9.922 44.238,22.119 C44.238,34.316 34.315,44.237 22.119,44.237 L22.119,44.237 Z M22.119,1.5 C10.75,1.5 1.5,10.75 1.5,22.119 C1.5,33.488 10.75,42.738 22.119,42.738 C33.488,42.738 42.738,33.488 42.738,22.119 C42.738,10.75 33.488,1.5 22.119,1.5 L22.119,1.5 Z" id="Shape" fill="#FFFFFF"></path>
            </g>
        </g>
    </g>
</svg>