<?xml version="1.0" encoding="UTF-8" standalone="no"?>
<svg width="25px" height="25px" viewBox="0 0 25 25" version="1.1" xmlns="http://www.w3.org/2000/svg" xmlns:xlink="http://www.w3.org/1999/xlink" xmlns:sketch="http://www.bohemiancoding.com/sketch/ns">
    <!-- Generator: Sketch 3.0.4 (8054) - http://www.bohemiancoding.com/sketch -->
    <title>right127</title>
    <desc>Created with Sketch.</desc>
    <defs></defs>
    <g id="Page-1" stroke="none" stroke-width="1" fill="none" fill-rule="evenodd" sketch:type="MSPage">
        <g id="right127" sketch:type="MSLayerGroup" transform="translate(13.000000, 12.000000) scale(-1, 1) translate(-13.000000, -12.000000) translate(1.000000, 0.000000)" fill="#FFFFFF">
            <g id="Group" sketch:type="MSShapeGroup">
                <path d="M12.0643636,24.1292727 C5.412,24.1292727 0,18.7167273 0,12.0643636 C0,5.412 5.412,0 12.0643636,0 C18.7167273,0 24.1292727,5.412 24.1292727,12.0643636 C24.1292727,18.7167273 18.7167273,24.1292727 12.0643636,24.1292727 L12.0643636,24.1292727 Z M12.0643636,0.818181818 C5.86363636,0.818181818 0.818181818,5.86309091 0.818181818,12.0643636 C0.818181818,18.2656364 5.86363636,23.3110909 12.0643636,23.3110909 C18.2661818,23.3110909 23.3110909,18.2656364 23.3110909,12.0643636 C23.3110909,5.86309091 18.2661818,0.818181818 12.0643636,0.818181818 L12.0643636,0.818181818 Z" id="Shape"></path>
                <path d="M10.2605455,16.1803636 C10.1007273,16.0210909 10.1007273,15.7614545 10.2605455,15.6016364 L13.9674545,11.8909091 L10.2605455,8.18018182 C10.1012727,8.02036364 10.1012727,7.76072727 10.2605455,7.60145455 C10.4203636,7.44163636 10.6794545,7.44163636 10.8392727,7.60145455 L14.8347273,11.6012727 C14.9945455,11.7610909 14.9945455,12.0201818 14.8347273,12.18 L10.8392727,16.1798182 C10.7590909,16.2605455 10.6543636,16.3003636 10.5496364,16.3003636 C10.4449091,16.3003636 10.3401818,16.2605455 10.2605455,16.1803636 Z" id="Shape"></path>
            </g>
        </g>
    </g>
</svg>